<mxfile host="Electron" modified="2024-07-11T13:33:35.371Z" agent="Mozilla/5.0 (Windows NT 10.0; Win64; x64) AppleWebKit/537.36 (KHTML, like Gecko) draw.io/24.6.4 Chrome/124.0.6367.207 Electron/30.0.6 Safari/537.36" etag="eSaxSIOLy4tJfOKk_vXH" version="24.6.4" type="device">
  <diagram name="Page-1" id="2YBvvXClWsGukQMizWep">
    <mxGraphModel dx="2537" dy="993" grid="1" gridSize="10" guides="1" tooltips="1" connect="1" arrows="1" fold="1" page="1" pageScale="1" pageWidth="850" pageHeight="1100" math="0" shadow="0">
      <root>
        <mxCell id="0" />
        <mxCell id="1" parent="0" />
        <mxCell id="aM9ryv3xv72pqoxQDRHE-1" value="&lt;span style=&quot;font-weight: 700; font-size: 10px;&quot;&gt;Портал электронной площадки&lt;/span&gt;" style="shape=umlLifeline;perimeter=lifelinePerimeter;whiteSpace=wrap;html=1;container=0;dropTarget=0;collapsible=0;recursiveResize=0;outlineConnect=0;portConstraint=eastwest;newEdgeStyle={&quot;edgeStyle&quot;:&quot;elbowEdgeStyle&quot;,&quot;elbow&quot;:&quot;vertical&quot;,&quot;curved&quot;:0,&quot;rounded&quot;:0};" parent="1" vertex="1">
          <mxGeometry x="40" y="40" width="100" height="300" as="geometry" />
        </mxCell>
        <mxCell id="aM9ryv3xv72pqoxQDRHE-2" value="" style="html=1;points=[];perimeter=orthogonalPerimeter;outlineConnect=0;targetShapes=umlLifeline;portConstraint=eastwest;newEdgeStyle={&quot;edgeStyle&quot;:&quot;elbowEdgeStyle&quot;,&quot;elbow&quot;:&quot;vertical&quot;,&quot;curved&quot;:0,&quot;rounded&quot;:0};" parent="aM9ryv3xv72pqoxQDRHE-1" vertex="1">
          <mxGeometry x="45" y="70" width="10" height="190" as="geometry" />
        </mxCell>
        <mxCell id="aM9ryv3xv72pqoxQDRHE-3" value="Регистрация пользователя" style="html=1;verticalAlign=bottom;startArrow=oval;endArrow=block;startSize=8;edgeStyle=elbowEdgeStyle;elbow=vertical;curved=0;rounded=0;" parent="aM9ryv3xv72pqoxQDRHE-1" target="aM9ryv3xv72pqoxQDRHE-2" edge="1">
          <mxGeometry relative="1" as="geometry">
            <mxPoint x="-120" y="70" as="sourcePoint" />
          </mxGeometry>
        </mxCell>
        <mxCell id="aM9ryv3xv72pqoxQDRHE-5" value="API-Gateway внутренние API" style="shape=umlLifeline;perimeter=lifelinePerimeter;whiteSpace=wrap;html=1;container=0;dropTarget=0;collapsible=0;recursiveResize=0;outlineConnect=0;portConstraint=eastwest;newEdgeStyle={&quot;edgeStyle&quot;:&quot;elbowEdgeStyle&quot;,&quot;elbow&quot;:&quot;vertical&quot;,&quot;curved&quot;:0,&quot;rounded&quot;:0};" parent="1" vertex="1">
          <mxGeometry x="220" y="40" width="100" height="300" as="geometry" />
        </mxCell>
        <mxCell id="aM9ryv3xv72pqoxQDRHE-6" value="" style="html=1;points=[];perimeter=orthogonalPerimeter;outlineConnect=0;targetShapes=umlLifeline;portConstraint=eastwest;newEdgeStyle={&quot;edgeStyle&quot;:&quot;elbowEdgeStyle&quot;,&quot;elbow&quot;:&quot;vertical&quot;,&quot;curved&quot;:0,&quot;rounded&quot;:0};" parent="aM9ryv3xv72pqoxQDRHE-5" vertex="1">
          <mxGeometry x="45" y="80" width="10" height="170" as="geometry" />
        </mxCell>
        <mxCell id="aM9ryv3xv72pqoxQDRHE-7" value="Отправка данных регистрации" style="html=1;verticalAlign=bottom;endArrow=block;edgeStyle=elbowEdgeStyle;elbow=vertical;curved=0;rounded=0;" parent="1" edge="1">
          <mxGeometry relative="1" as="geometry">
            <mxPoint x="95" y="123" as="sourcePoint" />
            <Array as="points">
              <mxPoint x="180" y="123" />
            </Array>
            <mxPoint x="265" y="123" as="targetPoint" />
          </mxGeometry>
        </mxCell>
        <mxCell id="aM9ryv3xv72pqoxQDRHE-9" value="Подтверждение создания&amp;nbsp;&lt;div&gt;пользователя&lt;/div&gt;" style="html=1;verticalAlign=bottom;endArrow=block;edgeStyle=elbowEdgeStyle;elbow=vertical;curved=0;rounded=0;" parent="1" source="VmPjwdgASfEvzAb5nXO1-2" target="aM9ryv3xv72pqoxQDRHE-6" edge="1">
          <mxGeometry relative="1" as="geometry">
            <mxPoint x="435" y="160" as="sourcePoint" />
            <Array as="points">
              <mxPoint x="360" y="170" />
            </Array>
            <mxPoint x="270" y="160" as="targetPoint" />
          </mxGeometry>
        </mxCell>
        <mxCell id="VmPjwdgASfEvzAb5nXO1-1" value="Auth Service" style="shape=umlLifeline;perimeter=lifelinePerimeter;whiteSpace=wrap;html=1;container=0;dropTarget=0;collapsible=0;recursiveResize=0;outlineConnect=0;portConstraint=eastwest;newEdgeStyle={&quot;edgeStyle&quot;:&quot;elbowEdgeStyle&quot;,&quot;elbow&quot;:&quot;vertical&quot;,&quot;curved&quot;:0,&quot;rounded&quot;:0};" vertex="1" parent="1">
          <mxGeometry x="400" y="40" width="100" height="300" as="geometry" />
        </mxCell>
        <mxCell id="VmPjwdgASfEvzAb5nXO1-2" value="" style="html=1;points=[];perimeter=orthogonalPerimeter;outlineConnect=0;targetShapes=umlLifeline;portConstraint=eastwest;newEdgeStyle={&quot;edgeStyle&quot;:&quot;elbowEdgeStyle&quot;,&quot;elbow&quot;:&quot;vertical&quot;,&quot;curved&quot;:0,&quot;rounded&quot;:0};" vertex="1" parent="VmPjwdgASfEvzAb5nXO1-1">
          <mxGeometry x="45" y="80" width="10" height="60" as="geometry" />
        </mxCell>
        <mxCell id="VmPjwdgASfEvzAb5nXO1-3" value="&lt;span style=&quot;text-wrap: nowrap;&quot;&gt;Управление&lt;/span&gt;&lt;div&gt;&lt;span style=&quot;text-wrap: nowrap;&quot;&gt;&amp;nbsp;профилем&lt;/span&gt;&lt;/div&gt;" style="shape=umlLifeline;perimeter=lifelinePerimeter;whiteSpace=wrap;html=1;container=0;dropTarget=0;collapsible=0;recursiveResize=0;outlineConnect=0;portConstraint=eastwest;newEdgeStyle={&quot;edgeStyle&quot;:&quot;elbowEdgeStyle&quot;,&quot;elbow&quot;:&quot;vertical&quot;,&quot;curved&quot;:0,&quot;rounded&quot;:0};" vertex="1" parent="1">
          <mxGeometry x="560" y="40" width="100" height="300" as="geometry" />
        </mxCell>
        <mxCell id="VmPjwdgASfEvzAb5nXO1-4" value="" style="html=1;points=[];perimeter=orthogonalPerimeter;outlineConnect=0;targetShapes=umlLifeline;portConstraint=eastwest;newEdgeStyle={&quot;edgeStyle&quot;:&quot;elbowEdgeStyle&quot;,&quot;elbow&quot;:&quot;vertical&quot;,&quot;curved&quot;:0,&quot;rounded&quot;:0};" vertex="1" parent="VmPjwdgASfEvzAb5nXO1-3">
          <mxGeometry x="45" y="130" width="10" height="100" as="geometry" />
        </mxCell>
        <mxCell id="VmPjwdgASfEvzAb5nXO1-5" value="Создать пользователя" style="html=1;verticalAlign=bottom;endArrow=block;edgeStyle=elbowEdgeStyle;elbow=vertical;curved=0;rounded=0;" edge="1" parent="1" source="aM9ryv3xv72pqoxQDRHE-6" target="VmPjwdgASfEvzAb5nXO1-2">
          <mxGeometry relative="1" as="geometry">
            <mxPoint x="280" y="130" as="sourcePoint" />
            <Array as="points">
              <mxPoint x="355" y="130" />
            </Array>
            <mxPoint x="440" y="130" as="targetPoint" />
          </mxGeometry>
        </mxCell>
        <mxCell id="VmPjwdgASfEvzAb5nXO1-6" value="пользователь" style="shape=umlActor;verticalLabelPosition=bottom;verticalAlign=top;html=1;outlineConnect=0;" vertex="1" parent="1">
          <mxGeometry x="-120" y="70" width="30" height="60" as="geometry" />
        </mxCell>
        <mxCell id="VmPjwdgASfEvzAb5nXO1-7" value="Notification" style="shape=umlLifeline;perimeter=lifelinePerimeter;whiteSpace=wrap;html=1;container=0;dropTarget=0;collapsible=0;recursiveResize=0;outlineConnect=0;portConstraint=eastwest;newEdgeStyle={&quot;edgeStyle&quot;:&quot;elbowEdgeStyle&quot;,&quot;elbow&quot;:&quot;vertical&quot;,&quot;curved&quot;:0,&quot;rounded&quot;:0};" vertex="1" parent="1">
          <mxGeometry x="734" y="40" width="100" height="300" as="geometry" />
        </mxCell>
        <mxCell id="VmPjwdgASfEvzAb5nXO1-8" value="" style="html=1;points=[];perimeter=orthogonalPerimeter;outlineConnect=0;targetShapes=umlLifeline;portConstraint=eastwest;newEdgeStyle={&quot;edgeStyle&quot;:&quot;elbowEdgeStyle&quot;,&quot;elbow&quot;:&quot;vertical&quot;,&quot;curved&quot;:0,&quot;rounded&quot;:0};" vertex="1" parent="VmPjwdgASfEvzAb5nXO1-7">
          <mxGeometry x="45" y="140" width="10" height="80" as="geometry" />
        </mxCell>
        <mxCell id="VmPjwdgASfEvzAb5nXO1-9" value="Сохранить данные пользователя" style="html=1;verticalAlign=bottom;endArrow=block;edgeStyle=elbowEdgeStyle;elbow=vertical;curved=0;rounded=0;" edge="1" parent="1" source="aM9ryv3xv72pqoxQDRHE-6" target="VmPjwdgASfEvzAb5nXO1-4">
          <mxGeometry relative="1" as="geometry">
            <mxPoint x="280" y="200" as="sourcePoint" />
            <Array as="points">
              <mxPoint x="365" y="200" />
            </Array>
            <mxPoint x="600" y="200" as="targetPoint" />
          </mxGeometry>
        </mxCell>
        <mxCell id="VmPjwdgASfEvzAb5nXO1-10" value="Подтверждение сохранения пользователя" style="html=1;verticalAlign=bottom;endArrow=block;edgeStyle=elbowEdgeStyle;elbow=vertical;curved=0;rounded=0;" edge="1" parent="1">
          <mxGeometry relative="1" as="geometry">
            <mxPoint x="605" y="262" as="sourcePoint" />
            <Array as="points">
              <mxPoint x="370" y="262" />
            </Array>
            <mxPoint x="275" y="262" as="targetPoint" />
          </mxGeometry>
        </mxCell>
        <mxCell id="VmPjwdgASfEvzAb5nXO1-11" value="Нотификация нового&amp;nbsp;&lt;div&gt;пользователя&lt;/div&gt;" style="html=1;verticalAlign=bottom;endArrow=block;edgeStyle=elbowEdgeStyle;elbow=vertical;curved=0;rounded=0;" edge="1" parent="1" source="VmPjwdgASfEvzAb5nXO1-4">
          <mxGeometry relative="1" as="geometry">
            <mxPoint x="620" y="210" as="sourcePoint" />
            <Array as="points">
              <mxPoint x="695" y="210" />
            </Array>
            <mxPoint x="780" y="210" as="targetPoint" />
          </mxGeometry>
        </mxCell>
        <mxCell id="VmPjwdgASfEvzAb5nXO1-12" value="пользователь создан" style="html=1;verticalAlign=bottom;endArrow=block;edgeStyle=elbowEdgeStyle;elbow=vertical;curved=0;rounded=0;" edge="1" parent="1" target="aM9ryv3xv72pqoxQDRHE-2">
          <mxGeometry relative="1" as="geometry">
            <mxPoint x="265" y="280" as="sourcePoint" />
            <Array as="points">
              <mxPoint x="190" y="280" />
            </Array>
            <mxPoint x="100" y="280" as="targetPoint" />
          </mxGeometry>
        </mxCell>
        <mxCell id="VmPjwdgASfEvzAb5nXO1-13" value="" style="html=1;verticalAlign=bottom;endArrow=block;edgeStyle=elbowEdgeStyle;elbow=vertical;curved=0;rounded=0;" edge="1" parent="1" source="VmPjwdgASfEvzAb5nXO1-8" target="VmPjwdgASfEvzAb5nXO1-4">
          <mxGeometry relative="1" as="geometry">
            <mxPoint x="775" y="240" as="sourcePoint" />
            <Array as="points">
              <mxPoint x="700" y="240" />
            </Array>
            <mxPoint x="620" y="240" as="targetPoint" />
          </mxGeometry>
        </mxCell>
        <mxCell id="VmPjwdgASfEvzAb5nXO1-16" value="Admin Console" style="shape=umlLifeline;perimeter=lifelinePerimeter;whiteSpace=wrap;html=1;container=0;dropTarget=0;collapsible=0;recursiveResize=0;outlineConnect=0;portConstraint=eastwest;newEdgeStyle={&quot;edgeStyle&quot;:&quot;elbowEdgeStyle&quot;,&quot;elbow&quot;:&quot;vertical&quot;,&quot;curved&quot;:0,&quot;rounded&quot;:0};" vertex="1" parent="1">
          <mxGeometry x="-10" y="370" width="100" height="300" as="geometry" />
        </mxCell>
        <mxCell id="VmPjwdgASfEvzAb5nXO1-17" value="" style="html=1;points=[];perimeter=orthogonalPerimeter;outlineConnect=0;targetShapes=umlLifeline;portConstraint=eastwest;newEdgeStyle={&quot;edgeStyle&quot;:&quot;elbowEdgeStyle&quot;,&quot;elbow&quot;:&quot;vertical&quot;,&quot;curved&quot;:0,&quot;rounded&quot;:0};" vertex="1" parent="VmPjwdgASfEvzAb5nXO1-16">
          <mxGeometry x="45" y="70" width="10" height="190" as="geometry" />
        </mxCell>
        <mxCell id="VmPjwdgASfEvzAb5nXO1-18" value="создание аукциона" style="html=1;verticalAlign=bottom;startArrow=oval;endArrow=block;startSize=8;edgeStyle=elbowEdgeStyle;elbow=vertical;curved=0;rounded=0;" edge="1" parent="VmPjwdgASfEvzAb5nXO1-16" target="VmPjwdgASfEvzAb5nXO1-17">
          <mxGeometry relative="1" as="geometry">
            <mxPoint x="-120" y="70" as="sourcePoint" />
          </mxGeometry>
        </mxCell>
        <mxCell id="VmPjwdgASfEvzAb5nXO1-19" value="API-Gateway внутренние API" style="shape=umlLifeline;perimeter=lifelinePerimeter;whiteSpace=wrap;html=1;container=0;dropTarget=0;collapsible=0;recursiveResize=0;outlineConnect=0;portConstraint=eastwest;newEdgeStyle={&quot;edgeStyle&quot;:&quot;elbowEdgeStyle&quot;,&quot;elbow&quot;:&quot;vertical&quot;,&quot;curved&quot;:0,&quot;rounded&quot;:0};" vertex="1" parent="1">
          <mxGeometry x="170" y="370" width="100" height="300" as="geometry" />
        </mxCell>
        <mxCell id="VmPjwdgASfEvzAb5nXO1-20" value="" style="html=1;points=[];perimeter=orthogonalPerimeter;outlineConnect=0;targetShapes=umlLifeline;portConstraint=eastwest;newEdgeStyle={&quot;edgeStyle&quot;:&quot;elbowEdgeStyle&quot;,&quot;elbow&quot;:&quot;vertical&quot;,&quot;curved&quot;:0,&quot;rounded&quot;:0};" vertex="1" parent="VmPjwdgASfEvzAb5nXO1-19">
          <mxGeometry x="45" y="80" width="10" height="170" as="geometry" />
        </mxCell>
        <mxCell id="VmPjwdgASfEvzAb5nXO1-21" value="Отправка данных для&amp;nbsp;&lt;div&gt;создания аукциона&lt;/div&gt;" style="html=1;verticalAlign=bottom;endArrow=block;edgeStyle=elbowEdgeStyle;elbow=vertical;curved=0;rounded=0;" edge="1" parent="1">
          <mxGeometry relative="1" as="geometry">
            <mxPoint x="45" y="453" as="sourcePoint" />
            <Array as="points">
              <mxPoint x="130" y="453" />
            </Array>
            <mxPoint x="215" y="453" as="targetPoint" />
          </mxGeometry>
        </mxCell>
        <mxCell id="VmPjwdgASfEvzAb5nXO1-22" value="Подтверждение валидации" style="html=1;verticalAlign=bottom;endArrow=block;edgeStyle=elbowEdgeStyle;elbow=vertical;curved=0;rounded=0;" edge="1" parent="1">
          <mxGeometry relative="1" as="geometry">
            <mxPoint x="395" y="492" as="sourcePoint" />
            <Array as="points">
              <mxPoint x="310" y="492" />
            </Array>
            <mxPoint x="225" y="492" as="targetPoint" />
          </mxGeometry>
        </mxCell>
        <mxCell id="VmPjwdgASfEvzAb5nXO1-23" value="Auth Service" style="shape=umlLifeline;perimeter=lifelinePerimeter;whiteSpace=wrap;html=1;container=0;dropTarget=0;collapsible=0;recursiveResize=0;outlineConnect=0;portConstraint=eastwest;newEdgeStyle={&quot;edgeStyle&quot;:&quot;elbowEdgeStyle&quot;,&quot;elbow&quot;:&quot;vertical&quot;,&quot;curved&quot;:0,&quot;rounded&quot;:0};" vertex="1" parent="1">
          <mxGeometry x="350" y="370" width="100" height="300" as="geometry" />
        </mxCell>
        <mxCell id="VmPjwdgASfEvzAb5nXO1-24" value="" style="html=1;points=[];perimeter=orthogonalPerimeter;outlineConnect=0;targetShapes=umlLifeline;portConstraint=eastwest;newEdgeStyle={&quot;edgeStyle&quot;:&quot;elbowEdgeStyle&quot;,&quot;elbow&quot;:&quot;vertical&quot;,&quot;curved&quot;:0,&quot;rounded&quot;:0};" vertex="1" parent="VmPjwdgASfEvzAb5nXO1-23">
          <mxGeometry x="45" y="80" width="10" height="50" as="geometry" />
        </mxCell>
        <mxCell id="VmPjwdgASfEvzAb5nXO1-25" value="&lt;span style=&quot;text-wrap: nowrap;&quot;&gt;Управление&lt;/span&gt;&lt;div&gt;&lt;span style=&quot;text-wrap: nowrap;&quot;&gt;&amp;nbsp;аукционами&lt;/span&gt;&lt;br&gt;&lt;/div&gt;" style="shape=umlLifeline;perimeter=lifelinePerimeter;whiteSpace=wrap;html=1;container=0;dropTarget=0;collapsible=0;recursiveResize=0;outlineConnect=0;portConstraint=eastwest;newEdgeStyle={&quot;edgeStyle&quot;:&quot;elbowEdgeStyle&quot;,&quot;elbow&quot;:&quot;vertical&quot;,&quot;curved&quot;:0,&quot;rounded&quot;:0};" vertex="1" parent="1">
          <mxGeometry x="510" y="370" width="100" height="300" as="geometry" />
        </mxCell>
        <mxCell id="VmPjwdgASfEvzAb5nXO1-26" value="" style="html=1;points=[];perimeter=orthogonalPerimeter;outlineConnect=0;targetShapes=umlLifeline;portConstraint=eastwest;newEdgeStyle={&quot;edgeStyle&quot;:&quot;elbowEdgeStyle&quot;,&quot;elbow&quot;:&quot;vertical&quot;,&quot;curved&quot;:0,&quot;rounded&quot;:0};" vertex="1" parent="VmPjwdgASfEvzAb5nXO1-25">
          <mxGeometry x="45" y="130" width="10" height="100" as="geometry" />
        </mxCell>
        <mxCell id="VmPjwdgASfEvzAb5nXO1-27" value="Валидация токена&amp;nbsp;" style="html=1;verticalAlign=bottom;endArrow=block;edgeStyle=elbowEdgeStyle;elbow=horizontal;curved=0;rounded=0;" edge="1" parent="1" source="VmPjwdgASfEvzAb5nXO1-20" target="VmPjwdgASfEvzAb5nXO1-24">
          <mxGeometry relative="1" as="geometry">
            <mxPoint x="230" y="460" as="sourcePoint" />
            <Array as="points">
              <mxPoint x="305" y="460" />
            </Array>
            <mxPoint x="390" y="460" as="targetPoint" />
          </mxGeometry>
        </mxCell>
        <mxCell id="VmPjwdgASfEvzAb5nXO1-28" value="администратор" style="shape=umlActor;verticalLabelPosition=bottom;verticalAlign=top;html=1;outlineConnect=0;" vertex="1" parent="1">
          <mxGeometry x="-170" y="400" width="30" height="60" as="geometry" />
        </mxCell>
        <mxCell id="VmPjwdgASfEvzAb5nXO1-29" value="Notification" style="shape=umlLifeline;perimeter=lifelinePerimeter;whiteSpace=wrap;html=1;container=0;dropTarget=0;collapsible=0;recursiveResize=0;outlineConnect=0;portConstraint=eastwest;newEdgeStyle={&quot;edgeStyle&quot;:&quot;elbowEdgeStyle&quot;,&quot;elbow&quot;:&quot;vertical&quot;,&quot;curved&quot;:0,&quot;rounded&quot;:0};" vertex="1" parent="1">
          <mxGeometry x="684" y="370" width="100" height="300" as="geometry" />
        </mxCell>
        <mxCell id="VmPjwdgASfEvzAb5nXO1-30" value="" style="html=1;points=[];perimeter=orthogonalPerimeter;outlineConnect=0;targetShapes=umlLifeline;portConstraint=eastwest;newEdgeStyle={&quot;edgeStyle&quot;:&quot;elbowEdgeStyle&quot;,&quot;elbow&quot;:&quot;vertical&quot;,&quot;curved&quot;:0,&quot;rounded&quot;:0};" vertex="1" parent="VmPjwdgASfEvzAb5nXO1-29">
          <mxGeometry x="45" y="140" width="10" height="80" as="geometry" />
        </mxCell>
        <mxCell id="VmPjwdgASfEvzAb5nXO1-31" value="Создать аукцион" style="html=1;verticalAlign=bottom;endArrow=block;edgeStyle=elbowEdgeStyle;elbow=vertical;curved=0;rounded=0;" edge="1" parent="1">
          <mxGeometry relative="1" as="geometry">
            <mxPoint x="225" y="536" as="sourcePoint" />
            <Array as="points">
              <mxPoint x="315" y="536" />
            </Array>
            <mxPoint x="555" y="536" as="targetPoint" />
          </mxGeometry>
        </mxCell>
        <mxCell id="VmPjwdgASfEvzAb5nXO1-32" value="Подтверждение создания аукциона" style="html=1;verticalAlign=bottom;endArrow=block;edgeStyle=elbowEdgeStyle;elbow=vertical;curved=0;rounded=0;" edge="1" parent="1">
          <mxGeometry relative="1" as="geometry">
            <mxPoint x="555" y="592" as="sourcePoint" />
            <Array as="points">
              <mxPoint x="320" y="592" />
            </Array>
            <mxPoint x="225" y="592" as="targetPoint" />
          </mxGeometry>
        </mxCell>
        <mxCell id="VmPjwdgASfEvzAb5nXO1-33" value="Нотификация&amp;nbsp;&amp;nbsp;&lt;div&gt;пользователей аукциона&lt;/div&gt;" style="html=1;verticalAlign=bottom;endArrow=block;edgeStyle=elbowEdgeStyle;elbow=vertical;curved=0;rounded=0;" edge="1" parent="1" source="VmPjwdgASfEvzAb5nXO1-26">
          <mxGeometry relative="1" as="geometry">
            <mxPoint x="570" y="540" as="sourcePoint" />
            <Array as="points">
              <mxPoint x="645" y="540" />
            </Array>
            <mxPoint x="730" y="540" as="targetPoint" />
          </mxGeometry>
        </mxCell>
        <mxCell id="VmPjwdgASfEvzAb5nXO1-34" value="акцион создан" style="html=1;verticalAlign=bottom;endArrow=block;edgeStyle=elbowEdgeStyle;elbow=vertical;curved=0;rounded=0;" edge="1" parent="1" target="VmPjwdgASfEvzAb5nXO1-17">
          <mxGeometry relative="1" as="geometry">
            <mxPoint x="215" y="610" as="sourcePoint" />
            <Array as="points">
              <mxPoint x="140" y="610" />
            </Array>
            <mxPoint x="50" y="610" as="targetPoint" />
          </mxGeometry>
        </mxCell>
        <mxCell id="VmPjwdgASfEvzAb5nXO1-35" value="" style="html=1;verticalAlign=bottom;endArrow=block;edgeStyle=elbowEdgeStyle;elbow=vertical;curved=0;rounded=0;" edge="1" parent="1" source="VmPjwdgASfEvzAb5nXO1-30" target="VmPjwdgASfEvzAb5nXO1-26">
          <mxGeometry relative="1" as="geometry">
            <mxPoint x="725" y="570" as="sourcePoint" />
            <Array as="points">
              <mxPoint x="650" y="570" />
            </Array>
            <mxPoint x="570" y="570" as="targetPoint" />
          </mxGeometry>
        </mxCell>
        <mxCell id="VmPjwdgASfEvzAb5nXO1-83" value="&lt;span style=&quot;font-weight: 700; font-size: 10px;&quot;&gt;Портал электронной площадки&lt;/span&gt;" style="shape=umlLifeline;perimeter=lifelinePerimeter;whiteSpace=wrap;html=1;container=0;dropTarget=0;collapsible=0;recursiveResize=0;outlineConnect=0;portConstraint=eastwest;newEdgeStyle={&quot;edgeStyle&quot;:&quot;elbowEdgeStyle&quot;,&quot;elbow&quot;:&quot;vertical&quot;,&quot;curved&quot;:0,&quot;rounded&quot;:0};" vertex="1" parent="1">
          <mxGeometry x="-10" y="690" width="100" height="300" as="geometry" />
        </mxCell>
        <mxCell id="VmPjwdgASfEvzAb5nXO1-84" value="" style="html=1;points=[];perimeter=orthogonalPerimeter;outlineConnect=0;targetShapes=umlLifeline;portConstraint=eastwest;newEdgeStyle={&quot;edgeStyle&quot;:&quot;elbowEdgeStyle&quot;,&quot;elbow&quot;:&quot;vertical&quot;,&quot;curved&quot;:0,&quot;rounded&quot;:0};" vertex="1" parent="VmPjwdgASfEvzAb5nXO1-83">
          <mxGeometry x="45" y="70" width="10" height="190" as="geometry" />
        </mxCell>
        <mxCell id="VmPjwdgASfEvzAb5nXO1-85" value="Добавить товар" style="html=1;verticalAlign=bottom;startArrow=oval;endArrow=block;startSize=8;edgeStyle=elbowEdgeStyle;elbow=vertical;curved=0;rounded=0;" edge="1" parent="VmPjwdgASfEvzAb5nXO1-83" target="VmPjwdgASfEvzAb5nXO1-84">
          <mxGeometry relative="1" as="geometry">
            <mxPoint x="-120" y="70" as="sourcePoint" />
          </mxGeometry>
        </mxCell>
        <mxCell id="VmPjwdgASfEvzAb5nXO1-86" value="API-Gateway внутренние API" style="shape=umlLifeline;perimeter=lifelinePerimeter;whiteSpace=wrap;html=1;container=0;dropTarget=0;collapsible=0;recursiveResize=0;outlineConnect=0;portConstraint=eastwest;newEdgeStyle={&quot;edgeStyle&quot;:&quot;elbowEdgeStyle&quot;,&quot;elbow&quot;:&quot;vertical&quot;,&quot;curved&quot;:0,&quot;rounded&quot;:0};" vertex="1" parent="1">
          <mxGeometry x="170" y="690" width="100" height="300" as="geometry" />
        </mxCell>
        <mxCell id="VmPjwdgASfEvzAb5nXO1-87" value="" style="html=1;points=[];perimeter=orthogonalPerimeter;outlineConnect=0;targetShapes=umlLifeline;portConstraint=eastwest;newEdgeStyle={&quot;edgeStyle&quot;:&quot;elbowEdgeStyle&quot;,&quot;elbow&quot;:&quot;vertical&quot;,&quot;curved&quot;:0,&quot;rounded&quot;:0};" vertex="1" parent="VmPjwdgASfEvzAb5nXO1-86">
          <mxGeometry x="45" y="80" width="10" height="170" as="geometry" />
        </mxCell>
        <mxCell id="VmPjwdgASfEvzAb5nXO1-88" value="Отправка данных для&amp;nbsp;&lt;div&gt;добавления товара&lt;/div&gt;" style="html=1;verticalAlign=bottom;endArrow=block;edgeStyle=elbowEdgeStyle;elbow=vertical;curved=0;rounded=0;" edge="1" parent="1">
          <mxGeometry relative="1" as="geometry">
            <mxPoint x="45" y="773" as="sourcePoint" />
            <Array as="points">
              <mxPoint x="130" y="773" />
            </Array>
            <mxPoint x="215" y="773" as="targetPoint" />
          </mxGeometry>
        </mxCell>
        <mxCell id="VmPjwdgASfEvzAb5nXO1-89" value="Подтверждение валидации" style="html=1;verticalAlign=bottom;endArrow=block;edgeStyle=elbowEdgeStyle;elbow=vertical;curved=0;rounded=0;" edge="1" parent="1" source="VmPjwdgASfEvzAb5nXO1-91" target="VmPjwdgASfEvzAb5nXO1-87">
          <mxGeometry relative="1" as="geometry">
            <mxPoint x="385" y="810" as="sourcePoint" />
            <Array as="points">
              <mxPoint x="310" y="820" />
            </Array>
            <mxPoint x="220" y="810" as="targetPoint" />
          </mxGeometry>
        </mxCell>
        <mxCell id="VmPjwdgASfEvzAb5nXO1-90" value="Auth Service" style="shape=umlLifeline;perimeter=lifelinePerimeter;whiteSpace=wrap;html=1;container=0;dropTarget=0;collapsible=0;recursiveResize=0;outlineConnect=0;portConstraint=eastwest;newEdgeStyle={&quot;edgeStyle&quot;:&quot;elbowEdgeStyle&quot;,&quot;elbow&quot;:&quot;vertical&quot;,&quot;curved&quot;:0,&quot;rounded&quot;:0};" vertex="1" parent="1">
          <mxGeometry x="350" y="690" width="100" height="300" as="geometry" />
        </mxCell>
        <mxCell id="VmPjwdgASfEvzAb5nXO1-91" value="" style="html=1;points=[];perimeter=orthogonalPerimeter;outlineConnect=0;targetShapes=umlLifeline;portConstraint=eastwest;newEdgeStyle={&quot;edgeStyle&quot;:&quot;elbowEdgeStyle&quot;,&quot;elbow&quot;:&quot;vertical&quot;,&quot;curved&quot;:0,&quot;rounded&quot;:0};" vertex="1" parent="VmPjwdgASfEvzAb5nXO1-90">
          <mxGeometry x="45" y="80" width="10" height="60" as="geometry" />
        </mxCell>
        <mxCell id="VmPjwdgASfEvzAb5nXO1-92" value="&lt;span style=&quot;text-wrap: nowrap;&quot;&gt;Управление&lt;/span&gt;&lt;div&gt;&lt;span style=&quot;text-wrap: nowrap;&quot;&gt;&amp;nbsp;товарами и&amp;nbsp;&lt;/span&gt;&lt;/div&gt;&lt;div&gt;&lt;span style=&quot;text-wrap: nowrap;&quot;&gt;услугами&lt;/span&gt;&lt;br&gt;&lt;/div&gt;" style="shape=umlLifeline;perimeter=lifelinePerimeter;whiteSpace=wrap;html=1;container=0;dropTarget=0;collapsible=0;recursiveResize=0;outlineConnect=0;portConstraint=eastwest;newEdgeStyle={&quot;edgeStyle&quot;:&quot;elbowEdgeStyle&quot;,&quot;elbow&quot;:&quot;vertical&quot;,&quot;curved&quot;:0,&quot;rounded&quot;:0};" vertex="1" parent="1">
          <mxGeometry x="510" y="690" width="100" height="300" as="geometry" />
        </mxCell>
        <mxCell id="VmPjwdgASfEvzAb5nXO1-93" value="" style="html=1;points=[];perimeter=orthogonalPerimeter;outlineConnect=0;targetShapes=umlLifeline;portConstraint=eastwest;newEdgeStyle={&quot;edgeStyle&quot;:&quot;elbowEdgeStyle&quot;,&quot;elbow&quot;:&quot;vertical&quot;,&quot;curved&quot;:0,&quot;rounded&quot;:0};" vertex="1" parent="VmPjwdgASfEvzAb5nXO1-92">
          <mxGeometry x="45" y="130" width="10" height="100" as="geometry" />
        </mxCell>
        <mxCell id="VmPjwdgASfEvzAb5nXO1-94" value="Валидация токена&amp;nbsp;" style="html=1;verticalAlign=bottom;endArrow=block;edgeStyle=elbowEdgeStyle;elbow=vertical;curved=0;rounded=0;" edge="1" parent="1" source="VmPjwdgASfEvzAb5nXO1-87" target="VmPjwdgASfEvzAb5nXO1-91">
          <mxGeometry relative="1" as="geometry">
            <mxPoint x="230" y="780" as="sourcePoint" />
            <Array as="points">
              <mxPoint x="305" y="780" />
            </Array>
            <mxPoint x="390" y="780" as="targetPoint" />
          </mxGeometry>
        </mxCell>
        <mxCell id="VmPjwdgASfEvzAb5nXO1-95" value="пользователь" style="shape=umlActor;verticalLabelPosition=bottom;verticalAlign=top;html=1;outlineConnect=0;" vertex="1" parent="1">
          <mxGeometry x="-170" y="720" width="30" height="60" as="geometry" />
        </mxCell>
        <mxCell id="VmPjwdgASfEvzAb5nXO1-98" value="Добавить товар в профиль пользователя" style="html=1;verticalAlign=bottom;endArrow=block;edgeStyle=elbowEdgeStyle;elbow=vertical;curved=0;rounded=0;" edge="1" parent="1" source="VmPjwdgASfEvzAb5nXO1-87" target="VmPjwdgASfEvzAb5nXO1-93">
          <mxGeometry relative="1" as="geometry">
            <mxPoint x="230" y="850" as="sourcePoint" />
            <Array as="points">
              <mxPoint x="315" y="850" />
            </Array>
            <mxPoint x="550" y="850" as="targetPoint" />
          </mxGeometry>
        </mxCell>
        <mxCell id="VmPjwdgASfEvzAb5nXO1-99" value="Подтверждение добавления товара" style="html=1;verticalAlign=bottom;endArrow=block;edgeStyle=elbowEdgeStyle;elbow=vertical;curved=0;rounded=0;" edge="1" parent="1">
          <mxGeometry relative="1" as="geometry">
            <mxPoint x="555" y="912" as="sourcePoint" />
            <Array as="points">
              <mxPoint x="320" y="912" />
            </Array>
            <mxPoint x="225" y="912" as="targetPoint" />
          </mxGeometry>
        </mxCell>
        <mxCell id="VmPjwdgASfEvzAb5nXO1-101" value="товар добавлен" style="html=1;verticalAlign=bottom;endArrow=block;edgeStyle=elbowEdgeStyle;elbow=vertical;curved=0;rounded=0;" edge="1" parent="1" target="VmPjwdgASfEvzAb5nXO1-84">
          <mxGeometry relative="1" as="geometry">
            <mxPoint x="215" y="930" as="sourcePoint" />
            <Array as="points">
              <mxPoint x="140" y="930" />
            </Array>
            <mxPoint x="50" y="930" as="targetPoint" />
          </mxGeometry>
        </mxCell>
        <mxCell id="VmPjwdgASfEvzAb5nXO1-103" value="&lt;span style=&quot;font-weight: 700; font-size: 10px;&quot;&gt;Портал электронной площадки&lt;/span&gt;" style="shape=umlLifeline;perimeter=lifelinePerimeter;whiteSpace=wrap;html=1;container=0;dropTarget=0;collapsible=0;recursiveResize=0;outlineConnect=0;portConstraint=eastwest;newEdgeStyle={&quot;edgeStyle&quot;:&quot;elbowEdgeStyle&quot;,&quot;elbow&quot;:&quot;vertical&quot;,&quot;curved&quot;:0,&quot;rounded&quot;:0};" vertex="1" parent="1">
          <mxGeometry x="-287" y="1000" width="100" height="520" as="geometry" />
        </mxCell>
        <mxCell id="VmPjwdgASfEvzAb5nXO1-104" value="" style="html=1;points=[];perimeter=orthogonalPerimeter;outlineConnect=0;targetShapes=umlLifeline;portConstraint=eastwest;newEdgeStyle={&quot;edgeStyle&quot;:&quot;elbowEdgeStyle&quot;,&quot;elbow&quot;:&quot;vertical&quot;,&quot;curved&quot;:0,&quot;rounded&quot;:0};" vertex="1" parent="VmPjwdgASfEvzAb5nXO1-103">
          <mxGeometry x="45" y="70" width="10" height="400" as="geometry" />
        </mxCell>
        <mxCell id="VmPjwdgASfEvzAb5nXO1-105" value="сделать заказ" style="html=1;verticalAlign=bottom;startArrow=oval;endArrow=block;startSize=8;edgeStyle=elbowEdgeStyle;elbow=vertical;curved=0;rounded=0;" edge="1" parent="VmPjwdgASfEvzAb5nXO1-103" target="VmPjwdgASfEvzAb5nXO1-104">
          <mxGeometry relative="1" as="geometry">
            <mxPoint x="-120" y="70" as="sourcePoint" />
          </mxGeometry>
        </mxCell>
        <mxCell id="VmPjwdgASfEvzAb5nXO1-106" value="API-Gateway внутренние API" style="shape=umlLifeline;perimeter=lifelinePerimeter;whiteSpace=wrap;html=1;container=0;dropTarget=0;collapsible=0;recursiveResize=0;outlineConnect=0;portConstraint=eastwest;newEdgeStyle={&quot;edgeStyle&quot;:&quot;elbowEdgeStyle&quot;,&quot;elbow&quot;:&quot;vertical&quot;,&quot;curved&quot;:0,&quot;rounded&quot;:0};" vertex="1" parent="1">
          <mxGeometry x="-107" y="1000" width="100" height="520" as="geometry" />
        </mxCell>
        <mxCell id="VmPjwdgASfEvzAb5nXO1-107" value="" style="html=1;points=[];perimeter=orthogonalPerimeter;outlineConnect=0;targetShapes=umlLifeline;portConstraint=eastwest;newEdgeStyle={&quot;edgeStyle&quot;:&quot;elbowEdgeStyle&quot;,&quot;elbow&quot;:&quot;vertical&quot;,&quot;curved&quot;:0,&quot;rounded&quot;:0};" vertex="1" parent="VmPjwdgASfEvzAb5nXO1-106">
          <mxGeometry x="45" y="80" width="10" height="400" as="geometry" />
        </mxCell>
        <mxCell id="VmPjwdgASfEvzAb5nXO1-108" value="Отправка данных для&amp;nbsp;&lt;div&gt;создания заказа&lt;br&gt;&lt;/div&gt;" style="html=1;verticalAlign=bottom;endArrow=block;edgeStyle=elbowEdgeStyle;elbow=vertical;curved=0;rounded=0;" edge="1" parent="1">
          <mxGeometry relative="1" as="geometry">
            <mxPoint x="-232" y="1083" as="sourcePoint" />
            <Array as="points">
              <mxPoint x="-147" y="1083" />
            </Array>
            <mxPoint x="-62" y="1083" as="targetPoint" />
          </mxGeometry>
        </mxCell>
        <mxCell id="VmPjwdgASfEvzAb5nXO1-109" value="Подтверждение валидации" style="html=1;verticalAlign=bottom;endArrow=block;edgeStyle=elbowEdgeStyle;elbow=vertical;curved=0;rounded=0;" edge="1" parent="1" source="VmPjwdgASfEvzAb5nXO1-111" target="VmPjwdgASfEvzAb5nXO1-107">
          <mxGeometry relative="1" as="geometry">
            <mxPoint x="108" y="1120" as="sourcePoint" />
            <Array as="points">
              <mxPoint x="33" y="1130" />
            </Array>
            <mxPoint x="-57" y="1120" as="targetPoint" />
          </mxGeometry>
        </mxCell>
        <mxCell id="VmPjwdgASfEvzAb5nXO1-110" value="Auth Service" style="shape=umlLifeline;perimeter=lifelinePerimeter;whiteSpace=wrap;html=1;container=0;dropTarget=0;collapsible=0;recursiveResize=0;outlineConnect=0;portConstraint=eastwest;newEdgeStyle={&quot;edgeStyle&quot;:&quot;elbowEdgeStyle&quot;,&quot;elbow&quot;:&quot;vertical&quot;,&quot;curved&quot;:0,&quot;rounded&quot;:0};" vertex="1" parent="1">
          <mxGeometry x="73" y="1000" width="100" height="520" as="geometry" />
        </mxCell>
        <mxCell id="VmPjwdgASfEvzAb5nXO1-111" value="" style="html=1;points=[];perimeter=orthogonalPerimeter;outlineConnect=0;targetShapes=umlLifeline;portConstraint=eastwest;newEdgeStyle={&quot;edgeStyle&quot;:&quot;elbowEdgeStyle&quot;,&quot;elbow&quot;:&quot;vertical&quot;,&quot;curved&quot;:0,&quot;rounded&quot;:0};" vertex="1" parent="VmPjwdgASfEvzAb5nXO1-110">
          <mxGeometry x="45" y="80" width="10" height="60" as="geometry" />
        </mxCell>
        <mxCell id="VmPjwdgASfEvzAb5nXO1-112" value="&lt;div&gt;&lt;span style=&quot;text-wrap: nowrap;&quot;&gt;Управление&amp;nbsp;&lt;/span&gt;&lt;/div&gt;&lt;div&gt;&lt;span style=&quot;text-wrap: nowrap;&quot;&gt;заказами&lt;/span&gt;&lt;br&gt;&lt;/div&gt;" style="shape=umlLifeline;perimeter=lifelinePerimeter;whiteSpace=wrap;html=1;container=0;dropTarget=0;collapsible=0;recursiveResize=0;outlineConnect=0;portConstraint=eastwest;newEdgeStyle={&quot;edgeStyle&quot;:&quot;elbowEdgeStyle&quot;,&quot;elbow&quot;:&quot;vertical&quot;,&quot;curved&quot;:0,&quot;rounded&quot;:0};" vertex="1" parent="1">
          <mxGeometry x="233" y="1000" width="100" height="520" as="geometry" />
        </mxCell>
        <mxCell id="VmPjwdgASfEvzAb5nXO1-113" value="" style="html=1;points=[];perimeter=orthogonalPerimeter;outlineConnect=0;targetShapes=umlLifeline;portConstraint=eastwest;newEdgeStyle={&quot;edgeStyle&quot;:&quot;elbowEdgeStyle&quot;,&quot;elbow&quot;:&quot;vertical&quot;,&quot;curved&quot;:0,&quot;rounded&quot;:0};" vertex="1" parent="VmPjwdgASfEvzAb5nXO1-112">
          <mxGeometry x="45" y="130" width="10" height="80" as="geometry" />
        </mxCell>
        <mxCell id="VmPjwdgASfEvzAb5nXO1-123" value="" style="html=1;points=[];perimeter=orthogonalPerimeter;outlineConnect=0;targetShapes=umlLifeline;portConstraint=eastwest;newEdgeStyle={&quot;edgeStyle&quot;:&quot;elbowEdgeStyle&quot;,&quot;elbow&quot;:&quot;vertical&quot;,&quot;curved&quot;:0,&quot;rounded&quot;:0};" vertex="1" parent="VmPjwdgASfEvzAb5nXO1-112">
          <mxGeometry x="45" y="287" width="10" height="80" as="geometry" />
        </mxCell>
        <mxCell id="VmPjwdgASfEvzAb5nXO1-114" value="Валидация токена&amp;nbsp;" style="html=1;verticalAlign=bottom;endArrow=block;edgeStyle=elbowEdgeStyle;elbow=vertical;curved=0;rounded=0;" edge="1" parent="1" source="VmPjwdgASfEvzAb5nXO1-107" target="VmPjwdgASfEvzAb5nXO1-111">
          <mxGeometry relative="1" as="geometry">
            <mxPoint x="-47" y="1090" as="sourcePoint" />
            <Array as="points">
              <mxPoint x="28" y="1090" />
            </Array>
            <mxPoint x="113" y="1090" as="targetPoint" />
          </mxGeometry>
        </mxCell>
        <mxCell id="VmPjwdgASfEvzAb5nXO1-115" value="пользователь" style="shape=umlActor;verticalLabelPosition=bottom;verticalAlign=top;html=1;outlineConnect=0;" vertex="1" parent="1">
          <mxGeometry x="-447" y="1030" width="30" height="60" as="geometry" />
        </mxCell>
        <mxCell id="VmPjwdgASfEvzAb5nXO1-116" value="Создать заказ" style="html=1;verticalAlign=bottom;endArrow=block;edgeStyle=elbowEdgeStyle;elbow=vertical;curved=0;rounded=0;" edge="1" parent="1" source="VmPjwdgASfEvzAb5nXO1-107" target="VmPjwdgASfEvzAb5nXO1-113">
          <mxGeometry x="-0.0606" relative="1" as="geometry">
            <mxPoint x="-47" y="1160" as="sourcePoint" />
            <Array as="points">
              <mxPoint x="38" y="1160" />
            </Array>
            <mxPoint x="273" y="1160" as="targetPoint" />
            <mxPoint as="offset" />
          </mxGeometry>
        </mxCell>
        <mxCell id="VmPjwdgASfEvzAb5nXO1-117" value="Подтверждение создания заказа" style="html=1;verticalAlign=bottom;endArrow=block;edgeStyle=elbowEdgeStyle;elbow=vertical;curved=0;rounded=0;" edge="1" parent="1">
          <mxGeometry relative="1" as="geometry">
            <mxPoint x="278" y="1197" as="sourcePoint" />
            <Array as="points">
              <mxPoint x="43" y="1197" />
            </Array>
            <mxPoint x="-52" y="1197" as="targetPoint" />
          </mxGeometry>
        </mxCell>
        <mxCell id="VmPjwdgASfEvzAb5nXO1-118" value="заказ создан" style="html=1;verticalAlign=bottom;endArrow=block;edgeStyle=elbowEdgeStyle;elbow=horizontal;curved=0;rounded=0;" edge="1" parent="1">
          <mxGeometry relative="1" as="geometry">
            <mxPoint x="-62" y="1453" as="sourcePoint" />
            <Array as="points">
              <mxPoint x="-137" y="1453" />
            </Array>
            <mxPoint x="-232" y="1453" as="targetPoint" />
          </mxGeometry>
        </mxCell>
        <mxCell id="VmPjwdgASfEvzAb5nXO1-119" value="&lt;div&gt;API-Gateway внешние API&lt;br&gt;&lt;/div&gt;" style="shape=umlLifeline;perimeter=lifelinePerimeter;whiteSpace=wrap;html=1;container=0;dropTarget=0;collapsible=0;recursiveResize=0;outlineConnect=0;portConstraint=eastwest;newEdgeStyle={&quot;edgeStyle&quot;:&quot;elbowEdgeStyle&quot;,&quot;elbow&quot;:&quot;vertical&quot;,&quot;curved&quot;:0,&quot;rounded&quot;:0};" vertex="1" parent="1">
          <mxGeometry x="542" y="1000" width="100" height="520" as="geometry" />
        </mxCell>
        <mxCell id="VmPjwdgASfEvzAb5nXO1-120" value="" style="html=1;points=[];perimeter=orthogonalPerimeter;outlineConnect=0;targetShapes=umlLifeline;portConstraint=eastwest;newEdgeStyle={&quot;edgeStyle&quot;:&quot;elbowEdgeStyle&quot;,&quot;elbow&quot;:&quot;vertical&quot;,&quot;curved&quot;:0,&quot;rounded&quot;:0};" vertex="1" parent="VmPjwdgASfEvzAb5nXO1-119">
          <mxGeometry x="45" y="207" width="10" height="80" as="geometry" />
        </mxCell>
        <mxCell id="VmPjwdgASfEvzAb5nXO1-121" value="Инициировать платежную операцию" style="html=1;verticalAlign=bottom;endArrow=block;edgeStyle=elbowEdgeStyle;elbow=vertical;curved=0;rounded=0;" edge="1" parent="1" target="VmPjwdgASfEvzAb5nXO1-131">
          <mxGeometry relative="1" as="geometry">
            <mxPoint x="-47" y="1240" as="sourcePoint" />
            <Array as="points">
              <mxPoint x="43" y="1240" />
            </Array>
            <mxPoint x="433" y="1240" as="targetPoint" />
          </mxGeometry>
        </mxCell>
        <mxCell id="VmPjwdgASfEvzAb5nXO1-122" value="Подтверждение инициации платежа" style="html=1;verticalAlign=bottom;endArrow=block;edgeStyle=elbowEdgeStyle;elbow=vertical;curved=0;rounded=0;" edge="1" parent="1">
          <mxGeometry relative="1" as="geometry">
            <mxPoint x="434" y="1274" as="sourcePoint" />
            <Array as="points">
              <mxPoint x="38" y="1274" />
            </Array>
            <mxPoint x="-52" y="1274" as="targetPoint" />
          </mxGeometry>
        </mxCell>
        <mxCell id="VmPjwdgASfEvzAb5nXO1-124" value="Подтверждение заказа" style="html=1;verticalAlign=bottom;endArrow=block;edgeStyle=elbowEdgeStyle;elbow=vertical;curved=0;rounded=0;" edge="1" parent="1" source="VmPjwdgASfEvzAb5nXO1-107" target="VmPjwdgASfEvzAb5nXO1-123">
          <mxGeometry x="-0.0606" relative="1" as="geometry">
            <mxPoint x="-47" y="1310" as="sourcePoint" />
            <Array as="points">
              <mxPoint x="43" y="1310" />
            </Array>
            <mxPoint x="273" y="1310" as="targetPoint" />
            <mxPoint as="offset" />
          </mxGeometry>
        </mxCell>
        <mxCell id="VmPjwdgASfEvzAb5nXO1-125" value="Подтверждение размещения заказа" style="html=1;verticalAlign=bottom;endArrow=block;edgeStyle=elbowEdgeStyle;elbow=vertical;curved=0;rounded=0;" edge="1" parent="1" source="VmPjwdgASfEvzAb5nXO1-123" target="VmPjwdgASfEvzAb5nXO1-107">
          <mxGeometry relative="1" as="geometry">
            <mxPoint x="263" y="1340" as="sourcePoint" />
            <Array as="points">
              <mxPoint x="48" y="1340" />
            </Array>
            <mxPoint x="-47" y="1340" as="targetPoint" />
          </mxGeometry>
        </mxCell>
        <mxCell id="VmPjwdgASfEvzAb5nXO1-126" value="Notification" style="shape=umlLifeline;perimeter=lifelinePerimeter;whiteSpace=wrap;html=1;container=0;dropTarget=0;collapsible=0;recursiveResize=0;outlineConnect=0;portConstraint=eastwest;newEdgeStyle={&quot;edgeStyle&quot;:&quot;elbowEdgeStyle&quot;,&quot;elbow&quot;:&quot;vertical&quot;,&quot;curved&quot;:0,&quot;rounded&quot;:0};" vertex="1" parent="1">
          <mxGeometry x="697" y="1000" width="100" height="520" as="geometry" />
        </mxCell>
        <mxCell id="VmPjwdgASfEvzAb5nXO1-127" value="" style="html=1;points=[];perimeter=orthogonalPerimeter;outlineConnect=0;targetShapes=umlLifeline;portConstraint=eastwest;newEdgeStyle={&quot;edgeStyle&quot;:&quot;elbowEdgeStyle&quot;,&quot;elbow&quot;:&quot;vertical&quot;,&quot;curved&quot;:0,&quot;rounded&quot;:0};" vertex="1" parent="VmPjwdgASfEvzAb5nXO1-126">
          <mxGeometry x="45" y="360" width="10" height="80" as="geometry" />
        </mxCell>
        <mxCell id="VmPjwdgASfEvzAb5nXO1-128" value="Нотификация об изменении состояния заказа" style="html=1;verticalAlign=bottom;endArrow=block;edgeStyle=elbowEdgeStyle;elbow=vertical;curved=0;rounded=0;" edge="1" parent="1" source="VmPjwdgASfEvzAb5nXO1-107" target="VmPjwdgASfEvzAb5nXO1-127">
          <mxGeometry relative="1" as="geometry">
            <mxPoint x="-37" y="1400" as="sourcePoint" />
            <Array as="points">
              <mxPoint x="32.5" y="1400" />
            </Array>
            <mxPoint x="423.5" y="1400" as="targetPoint" />
          </mxGeometry>
        </mxCell>
        <mxCell id="VmPjwdgASfEvzAb5nXO1-129" value="" style="html=1;verticalAlign=bottom;endArrow=block;edgeStyle=elbowEdgeStyle;elbow=vertical;curved=0;rounded=0;" edge="1" parent="1">
          <mxGeometry relative="1" as="geometry">
            <mxPoint x="588" y="1428" as="sourcePoint" />
            <Array as="points">
              <mxPoint x="43" y="1428" />
            </Array>
            <mxPoint x="-52" y="1428" as="targetPoint" />
          </mxGeometry>
        </mxCell>
        <mxCell id="VmPjwdgASfEvzAb5nXO1-130" value="&lt;div&gt;&lt;div&gt;&lt;span style=&quot;text-wrap: nowrap;&quot;&gt;Управление&lt;/span&gt;&lt;/div&gt;&lt;div&gt;&lt;span style=&quot;text-wrap: nowrap;&quot;&gt;&amp;nbsp;платежами&lt;/span&gt;&lt;/div&gt;&lt;/div&gt;" style="shape=umlLifeline;perimeter=lifelinePerimeter;whiteSpace=wrap;html=1;container=0;dropTarget=0;collapsible=0;recursiveResize=0;outlineConnect=0;portConstraint=eastwest;newEdgeStyle={&quot;edgeStyle&quot;:&quot;elbowEdgeStyle&quot;,&quot;elbow&quot;:&quot;vertical&quot;,&quot;curved&quot;:0,&quot;rounded&quot;:0};" vertex="1" parent="1">
          <mxGeometry x="389" y="1000" width="100" height="520" as="geometry" />
        </mxCell>
        <mxCell id="VmPjwdgASfEvzAb5nXO1-131" value="" style="html=1;points=[];perimeter=orthogonalPerimeter;outlineConnect=0;targetShapes=umlLifeline;portConstraint=eastwest;newEdgeStyle={&quot;edgeStyle&quot;:&quot;elbowEdgeStyle&quot;,&quot;elbow&quot;:&quot;vertical&quot;,&quot;curved&quot;:0,&quot;rounded&quot;:0};" vertex="1" parent="VmPjwdgASfEvzAb5nXO1-130">
          <mxGeometry x="45" y="207" width="10" height="80" as="geometry" />
        </mxCell>
        <mxCell id="VmPjwdgASfEvzAb5nXO1-134" value="Инициировать платеж" style="html=1;verticalAlign=bottom;endArrow=block;edgeStyle=elbowEdgeStyle;elbow=vertical;curved=0;rounded=0;" edge="1" parent="1" source="VmPjwdgASfEvzAb5nXO1-131" target="VmPjwdgASfEvzAb5nXO1-120">
          <mxGeometry x="-0.0606" relative="1" as="geometry">
            <mxPoint x="-42" y="1170" as="sourcePoint" />
            <Array as="points" />
            <mxPoint x="288" y="1170" as="targetPoint" />
            <mxPoint as="offset" />
          </mxGeometry>
        </mxCell>
        <mxCell id="VmPjwdgASfEvzAb5nXO1-135" value="Подтверждение платежа" style="html=1;verticalAlign=bottom;endArrow=block;edgeStyle=elbowEdgeStyle;elbow=vertical;curved=0;rounded=0;" edge="1" parent="1">
          <mxGeometry relative="1" as="geometry">
            <mxPoint x="587" y="1266" as="sourcePoint" />
            <Array as="points">
              <mxPoint x="524" y="1266" />
            </Array>
            <mxPoint x="444" y="1266" as="targetPoint" />
          </mxGeometry>
        </mxCell>
      </root>
    </mxGraphModel>
  </diagram>
</mxfile>
